<svg width="263" height="269" viewBox="0 0 263 269" fill="none" xmlns="http://www.w3.org/2000/svg">
<g clip-path="url(#clip0_1_8602)">
<path d="M136.144 250.652C141.847 246.681 147.956 243.431 154.245 240.511C159.999 237.845 165.859 235.427 171.685 232.929C175.948 231.104 180.125 229.112 184.047 226.604C187.354 224.487 190.254 221.921 192.761 218.909C195.429 215.699 197.606 212.152 199.66 208.535C202.164 204.116 204.944 199.896 208.236 196.02C209.342 194.719 210.429 193.404 211.502 192.076C212.863 190.393 213.815 188.497 214.32 186.393C214.632 185.098 214.923 183.796 215.168 182.488C215.915 178.504 216.368 174.478 216.898 170.463C217.123 168.773 217.382 167.088 217.777 165.426C218.241 163.481 219.049 161.703 220.254 160.102C220.991 159.121 221.7 158.12 222.428 157.133C223.001 156.355 223.476 155.522 223.811 154.618C224.869 151.757 224.488 149.171 222.269 146.986C221.891 146.615 221.884 146.326 222.075 145.871C223.008 143.662 223.925 141.447 224.812 139.221C226.57 134.813 228.255 130.383 229.49 125.793C230.309 122.745 230.876 119.661 230.974 116.502C231.063 113.632 230.628 110.869 229.23 108.319C228.449 106.899 227.462 105.657 226.076 104.78C223.818 103.355 221.393 103.159 218.856 103.85C218.65 103.904 218.455 104.01 218.246 104.043C218.016 104.079 217.787 104.363 217.483 104.019C217.499 103.651 217.529 103.232 217.532 102.812C217.537 99.8495 216.841 97.0852 214.984 94.7381C212.969 92.1921 210.316 90.9273 207.02 91.2C204.727 91.3892 202.674 92.2204 200.871 93.6427C200.207 94.1687 199.612 94.7874 198.987 95.3669C198.764 95.5737 198.526 95.6166 198.275 95.4313C198.062 95.2753 197.85 95.1099 197.646 94.9408C194.277 92.187 190.526 90.0795 186.478 88.5208C175.95 84.4676 165.353 84.564 154.724 88.1786C154.522 88.2478 154.328 88.3419 154.124 88.4021C153.947 88.4528 153.764 88.6804 153.584 88.4194C153.442 88.0856 153.596 87.778 153.647 87.4717C154.776 80.1898 154.36 73.0203 152.136 65.9797C149.862 58.7775 146.053 52.5277 140.585 47.3048C140.202 46.9378 139.639 46.6136 139.508 46.1667C139.341 45.5986 139.966 45.1434 140.258 44.6511C141.449 42.6428 142.209 40.5013 142.227 38.1496C142.257 34.1095 140.405 31.2327 136.774 29.5141C134.121 28.2625 131.339 28.1258 128.493 28.681C128.112 28.7553 127.729 28.951 127.284 28.8221C127.328 28.5204 127.356 28.3118 127.39 28.1039C128.072 23.706 125.99 20.0569 121.864 18.4176C119.898 17.6382 117.851 17.3952 115.749 17.5243C113.445 17.6654 111.215 18.1547 109.035 18.9025C104.834 20.3461 100.888 22.3303 97.0543 24.5522C93.1816 26.798 89.4079 29.205 85.6626 31.6564C84.8919 32.1605 84.8751 32.1671 84.1565 31.6286C82.572 30.4455 80.8096 30.0463 78.8746 30.3886C77.4115 30.6495 76.171 31.3714 75.0959 32.3608C74.1942 33.1917 73.3232 34.0576 72.4996 34.9631C70.7807 36.8509 68.771 38.3122 66.3925 39.2259C64.7533 39.8564 63.0856 40.4182 61.4159 40.969C58.8866 41.8034 56.3355 42.5767 53.8091 43.4211C51.6887 44.1309 49.5721 44.8607 47.5135 45.7495C45.0751 46.8041 42.9678 48.2907 41.2706 50.3539C39.9146 52.0018 38.5488 53.6414 37.1508 55.2524C35.1212 57.5904 32.9576 59.7957 30.622 61.833C27.2892 64.7395 23.8896 67.5695 20.7816 70.733C17.4175 74.1582 14.6705 77.9752 12.7345 82.3724C10.9884 86.3384 9.72196 90.4577 8.71267 94.6609C7.87776 98.1315 7.07189 101.608 6.26914 105.085C4.66308 112.044 2.88484 118.958 0.609968 125.733C-0.7141 129.675 -2.15537 133.571 -4.05661 137.282C-4.96498 139.057 -6.07398 140.673 -7.65309 141.921C-8.69791 142.747 -9.72733 143.597 -10.8141 144.363C-16.4776 148.354 -22.1459 152.335 -27.8306 156.294C-39.5047 164.428 -51.1919 172.542 -62.8639 180.678C-63.3814 181.037 -63.9993 181.287 -64.36 181.851L-60.1905 185.334C-47.3035 176.338 -34.4083 167.354 -21.5331 158.339C-16.4711 154.795 -11.4431 151.202 -6.4165 147.604C-3.28358 145.362 -0.787298 142.552 0.870876 139.054C1.78321 137.129 2.66433 135.186 3.46534 133.213C5.41165 128.416 6.91464 123.472 8.27505 118.483C9.84411 112.724 11.1102 106.893 12.4471 101.08C13.4154 96.8739 14.4412 92.6846 15.7968 88.5816C17.5457 83.2848 20.2353 78.5585 24.1373 74.5453C26.445 72.172 28.937 70.0012 31.4654 67.874C35.3092 64.6398 38.8949 61.1507 42.1019 57.2778C42.9865 56.2098 43.8953 55.1621 44.7603 54.0796C46.4086 52.0167 48.4847 50.637 51.0091 49.8397C55.0723 48.5544 59.1097 47.1858 63.1549 45.8482C65.1769 45.1778 67.207 44.5292 69.1567 43.6544C71.6231 42.5483 73.7932 41.0449 75.5731 38.9946C76.2017 38.2689 76.8558 37.5664 77.502 36.8554C77.8977 36.422 78.3162 36.015 78.8317 35.7135C79.9249 35.0763 81.0049 35.1845 81.8939 36.0675C82.3917 36.5638 82.7266 37.1656 82.9218 37.8474C83.1885 38.7816 83.2545 39.7299 83.1876 40.6964C83.077 42.3061 82.65 43.8424 82.0729 45.3414C80.7361 48.8197 78.7164 51.8756 76.2361 54.6346C73.3169 57.8809 69.8385 60.4111 66.0252 62.4986C65.0901 63.0114 64.1117 63.4374 63.0778 63.7217C61.0469 64.2796 59.0767 64.1694 57.1677 63.2338C55.2684 62.3046 53.6623 61.0379 52.4055 59.3215C52.1004 58.9056 51.9185 58.3736 51.3905 58.0543C50.9655 59.0175 51.051 59.9783 51.2449 60.8967C51.8624 63.8261 53.1734 66.3012 55.9952 67.7107C56.4636 67.9447 56.4945 68.0978 56.2878 68.6049C56.2487 68.7033 56.2044 68.8011 56.1579 68.897C55.082 71.1028 53.8883 73.2458 52.532 75.2904C49.9884 79.1257 47.0521 82.6386 43.7624 85.8563C43.5532 86.0598 43.4055 86.3933 42.9573 86.3054C42.7349 85.9941 42.4757 85.6597 42.2446 85.3075C41.1253 83.5899 39.6797 82.1914 38.0599 80.9545C37.245 80.3318 36.3486 79.8808 35.377 79.571C35.1378 79.4948 34.8748 79.3912 34.7112 79.7414C34.8242 79.9106 34.9389 80.0889 35.0614 80.2623C37.6371 83.9586 39.5383 87.9901 40.9961 92.2412C43.1512 98.5183 44.4543 104.983 45.1732 111.571C45.6076 115.548 45.9143 119.532 45.7784 123.538C45.616 128.254 44.4236 132.678 42.089 136.8C40.12 140.277 37.5168 143.214 34.5842 145.886C31.7354 148.479 28.6 150.682 25.2957 152.648C24.988 152.833 24.5849 152.908 24.4525 153.402C25.1376 153.62 25.8058 153.443 26.4532 153.306C32.4567 152.036 37.6466 149.255 41.8906 144.8C46.6474 139.809 49.3689 133.849 50.2032 127.015C50.6061 123.719 50.5803 120.417 50.3195 117.119C50.0842 114.144 49.7499 111.177 49.4743 108.206C49.4532 107.98 49.3022 107.727 49.428 107.502C49.456 107.451 49.4986 107.402 49.5597 107.356C49.6119 107.37 49.6563 107.388 49.6951 107.411C49.8932 107.53 49.9375 107.763 50.025 107.956C51.0152 110.137 52.0535 112.296 52.9769 114.506C57.4963 125.334 60.3782 136.606 61.9444 148.225C62.1587 149.809 62.3168 151.401 62.516 152.987C62.5441 153.199 62.4781 153.5 62.7976 153.597C63.0932 153.287 63.0985 152.9 63.1834 152.548C63.6073 150.783 63.8585 148.989 63.9829 147.179C64.696 136.761 62.9528 126.784 58.5225 117.324C56.1401 112.236 53.1985 107.499 49.1607 103.525C48.7616 103.13 48.5357 102.7 48.429 102.154C47.7418 98.6473 46.9011 95.1795 45.6169 91.8374C45.4416 91.3802 45.4844 91.0358 45.8819 90.7143C47.297 89.5708 48.4978 88.2071 49.7291 86.8763C50.381 86.1719 51.0039 85.4396 51.6481 84.7288C51.9471 84.4 52.1451 84.4024 52.4326 84.7119C52.5779 84.8669 52.709 85.0345 52.8411 85.201C57.5485 91.1441 60.6787 97.8407 62.3671 105.22C62.5442 105.995 62.6257 106.798 62.672 107.593C63.2417 117.281 64.1458 126.936 65.3764 136.56C66.8509 148.088 68.0613 159.639 68.467 171.265C68.5009 172.218 68.2947 172.915 67.546 173.471C67.3318 173.629 67.1417 173.819 66.9355 173.987C64.2906 176.158 61.4561 178.053 58.4529 179.679C53.7225 182.242 48.9592 184.744 44.2035 187.261C43.6407 187.559 43.0476 187.812 42.4493 188.032C39.9945 188.936 37.7345 188.512 35.6617 186.974C35.0625 186.529 34.532 186.01 34.043 185.44C32.6179 183.78 31.3662 181.995 30.1825 180.159C28.568 177.654 27.0008 175.118 25.3412 172.644C24.9392 172.044 24.7611 171.154 23.831 171.012C23.625 171.755 23.8183 172.484 23.9383 173.202C24.5512 176.86 25.784 180.311 27.5447 183.566C29.1238 186.488 30.983 189.2 33.6296 191.287C33.748 191.38 33.8225 191.53 33.9481 191.693C33.4921 192.445 32.7509 192.903 32.1351 193.474C28.8965 196.488 25.641 199.483 22.3866 202.479C18.3473 206.198 14.3081 209.917 10.2629 213.627C7.04153 216.582 3.80876 219.523 0.582585 222.47C-2.01471 224.843 -4.60978 227.218 -7.20596 229.591L-3.28102 232.87C-2.53443 233.046 -2.0967 232.547 -1.62656 232.114C11.4805 220.068 24.6765 208.118 37.7033 195.985C38.4499 195.291 39.1827 194.568 40.2798 194.512C42.5814 194.396 44.618 193.489 46.5992 192.417C48.8031 191.225 50.9842 189.995 53.2024 188.826C57.9132 186.342 62.7681 184.102 67.0547 180.871C67.3012 180.685 67.5557 180.452 68.0779 180.639C68.1876 182.422 67.8536 184.27 68.0452 186.113C68.2032 187.603 68.8505 188.713 70.0367 189.591C71.4881 190.665 73.0623 190.759 74.7496 190.36C76.0574 190.05 77.3252 189.508 78.9513 189.486C75.1241 196.825 73.4524 204.695 70.7855 212.219C69.9466 214.58 69.31 217.014 69.718 219.583C69.8499 220.424 69.4588 221.138 69.0224 221.824C59.4444 236.892 49.7734 251.899 40.1534 266.941C39.7983 267.498 39.5031 268.042 39.6425 268.726L43.5674 272.004C44.2686 270.937 44.9804 269.874 45.6653 268.797C48.1001 264.975 50.5145 261.142 52.9547 257.326C55.0207 254.091 57.1179 250.876 59.1894 247.646C61.3191 244.326 63.4401 240.999 65.5558 237.672C67.558 234.522 69.5302 231.356 71.5584 228.225C72.2762 227.115 72.8676 225.914 73.7626 224.917C74.1915 224.994 74.4272 225.305 74.7279 225.511C75.3404 225.933 75.9346 226.39 76.5801 226.759C81.3822 229.504 86.5754 230.929 92.0825 231.252C93.0887 231.31 94.1045 231.247 95.1138 231.213C95.3334 231.206 95.6632 231.27 95.6904 230.819C95.5374 230.715 95.3761 230.575 95.1889 230.488C93.9815 229.932 92.7745 229.372 91.5521 228.843C88.3778 227.47 85.157 226.205 82.0496 224.679C80.7564 224.042 79.4986 223.345 78.3392 222.493C75.9111 220.708 74.9834 218.016 75.7723 215.151C75.8571 214.844 75.9711 214.544 76.0704 214.239C77.1975 210.741 78.3223 207.241 79.4525 203.744C80.4696 200.601 81.455 197.447 82.8111 194.427C83.7715 192.286 84.8079 190.185 86.0676 188.201C86.4297 187.631 86.865 187.344 87.587 187.232C97.9732 185.611 108.417 184.568 118.909 184.014C125.456 183.668 132.006 183.391 138.537 182.794C142.678 182.416 146.808 181.95 150.936 181.447C151.674 181.356 152.425 181.269 153.165 181.305C160.271 181.644 167.063 183.273 173.5 186.311C174.268 186.673 174.99 187.129 175.727 187.559C175.945 187.685 175.953 187.899 175.806 188.097C175.426 188.613 175.039 189.121 174.651 189.63C173.36 191.328 172.073 193.03 170.949 194.845C170.629 195.363 170.259 195.531 169.642 195.414C168.388 195.176 167.121 194.992 165.851 194.851C163.572 194.598 161.281 194.514 158.989 194.56C158.372 194.573 157.874 194.412 157.364 194.06C153.874 191.662 150.07 189.891 146.066 188.544C135.34 184.938 124.443 184.627 113.425 186.954C111.027 187.46 108.678 188.171 106.422 189.162C106.147 189.282 105.781 189.309 105.742 189.723C106.044 189.907 106.365 189.81 106.675 189.787C115.576 189.101 124.459 189.306 133.319 190.33C139.248 191.015 145.142 191.918 150.931 193.396C151.809 193.622 152.676 193.871 153.546 194.122C153.587 194.134 153.634 194.163 153.673 194.199C153.714 194.238 153.744 194.284 153.756 194.325C153.789 194.469 153.714 194.528 153.619 194.555C153.572 194.568 153.522 194.574 153.478 194.576C152.468 194.65 151.457 194.706 150.447 194.78C145.923 195.113 141.425 195.627 137.023 196.785C131.364 198.272 126.264 200.792 121.999 204.886C116.489 210.174 113.486 216.645 112.761 224.21C112.675 225.113 112.649 226.018 112.769 226.922C112.796 227.134 112.833 227.331 113.154 227.472C113.363 227.004 113.596 226.537 113.787 226.055C114.898 223.223 116.206 220.485 117.746 217.86C119.639 214.633 121.701 211.547 124.454 208.949C127.886 205.712 131.774 203.29 136.285 201.885C139.195 200.978 142.173 200.397 145.188 199.993C153.096 198.93 161.011 198.708 168.935 199.773C173.763 200.421 178.438 201.622 182.827 203.796C182.97 203.866 183.113 203.954 183.264 203.994C183.426 204.035 183.578 204.303 183.774 204.055C183.409 202.9 183.039 202.278 182.177 201.347C180.709 199.76 178.95 198.578 177.015 197.643C176.68 197.481 176.335 197.337 175.999 197.178C175.743 197.054 175.786 196.815 175.864 196.631C175.968 196.391 176.136 196.175 176.284 195.952C179.213 191.591 182.649 187.667 186.57 184.173C187.883 183.005 189.246 181.891 190.74 180.95C191.291 180.603 191.332 180.623 191.775 181.142C194.317 184.136 197.577 185.103 201.382 184.529C201.534 184.505 201.696 184.45 201.826 184.364C201.978 184.263 201.977 184.071 201.846 183.973C201.593 183.781 201.316 183.614 201.032 183.467C199.5 182.678 198.185 181.591 196.983 180.381C194.59 177.974 193.634 175.121 194.517 171.762C194.736 170.939 194.961 170.112 195.264 169.319C197.026 164.692 199.462 160.464 202.802 156.784C204.747 154.64 206.926 152.771 209.434 151.306C210.775 150.524 212.174 149.874 213.69 149.514C214.682 149.278 215.683 149.145 216.699 149.319C219.183 149.747 219.97 151.415 218.771 153.616C218.101 154.848 217.154 155.865 216.286 156.94C214.821 158.75 213.765 160.766 213.14 163C212.825 164.127 212.562 165.275 212.369 166.429C211.974 168.793 211.644 171.169 211.286 173.54C210.782 176.858 210.286 180.179 209.769 183.494C209.409 185.815 208.464 187.873 206.923 189.653C206.4 190.258 205.887 190.874 205.363 191.478C201.924 195.436 198.916 199.695 196.294 204.235C194.671 207.051 193.096 209.894 191.252 212.58C189.148 215.638 186.694 218.35 183.728 220.582C180.519 223 176.998 224.892 173.353 226.541C169.714 228.188 166.035 229.75 162.36 231.318C155.94 234.053 149.523 236.795 143.378 240.128C139.393 242.287 135.497 244.58 131.876 247.329C128.586 249.821 125.961 252.838 124.187 256.58C123.432 258.169 122.599 259.719 121.869 261.318C116.208 273.729 110.562 286.144 104.917 298.561C102.205 304.527 99.503 310.498 96.7965 316.466L100.965 319.948C100.965 319.948 100.965 319.948 100.966 319.947C101.252 319.761 101.362 319.454 101.491 319.167C101.927 318.194 102.349 317.215 102.786 316.244C109.748 300.798 116.698 285.346 123.681 269.909C125.526 265.831 127.332 261.735 129.425 257.774C130.327 256.065 131.42 254.511 132.879 253.211C133.912 252.286 135.009 251.445 136.144 250.652ZM216.792 110.889C217.551 110.044 218.421 109.351 219.467 108.903C221.881 107.866 224.063 108.748 225.105 111.171C225.444 111.961 225.604 112.795 225.714 113.645C226.021 115.997 225.816 118.324 225.366 120.64C224.6 124.575 223.367 128.374 221.962 132.119C220.54 135.912 219.007 139.659 217.386 143.373C216.95 144.371 216.838 144.351 216.005 144.274C214.285 144.115 212.61 144.393 210.955 144.878C210.628 144.975 210.294 145.28 209.858 144.963C210.767 142.769 211.482 140.502 212.02 138.18C213.494 131.798 213.623 125.401 212.273 118.993C212.096 118.152 212.197 117.492 212.634 116.744C213.846 114.667 215.184 112.685 216.792 110.889ZM187.324 177.113C184.228 179.313 181.479 181.899 178.901 184.677C178.15 185.486 177.409 186.303 176.603 187.121C176.404 186.954 176.272 186.872 176.178 186.759C173.573 183.646 170.407 181.284 166.693 179.648C166.454 179.544 166.191 179.463 166.078 179.187C166.078 179.187 166.078 179.187 166.079 179.185L166.078 179.166L166.077 179.165C166.185 178.844 166.489 178.88 166.732 178.825C172.458 177.5 177.98 175.59 183.247 172.971C183.898 172.646 184.526 172.53 185.243 172.632C186.548 172.816 187.872 172.877 189.192 173.247C189.183 173.5 189.218 173.719 189.161 173.913C188.974 174.584 189.466 175.372 189.003 175.917C188.572 176.424 187.887 176.711 187.324 177.113ZM206.521 96.4061C208.651 95.8443 210.44 96.6255 211.516 98.5468C211.964 99.3475 212.242 100.205 212.351 101.113C212.768 104.629 211.931 107.875 210.194 110.923C210.172 110.961 210.104 110.975 209.897 111.086C209.204 109.454 208.482 107.914 207.627 106.444C206.258 104.09 204.665 101.899 202.842 99.8731C202.4 99.382 202.415 99.3195 202.836 98.8123C203.814 97.6289 205.033 96.8008 206.521 96.4061ZM122.448 36.8859C125.068 34.9533 127.953 33.7012 131.232 33.4718C132.084 33.4121 132.929 33.4946 133.756 33.7246C136.468 34.4733 137.73 36.5909 137.101 39.322C136.872 40.3195 136.418 41.217 135.89 42.0835C135.297 43.0618 135.236 43.0909 134.317 42.4756C132.284 41.1099 130.103 40.0226 127.856 39.0555C126.099 38.301 124.287 37.7094 122.394 37.2139C122.431 36.9823 122.419 36.9048 122.448 36.8859ZM136.349 52.0458C142.476 57.945 146.106 65.1602 147.419 73.5159C148.649 81.3326 147.617 88.9135 144.546 96.2181C143.657 98.3345 142.619 100.374 141.522 102.388C141.243 102.9 140.986 103.423 140.575 104.222C141.862 103.481 142.681 102.627 143.587 101.892C148.66 97.7747 154.253 94.6403 160.624 93.0748C170.385 90.6775 179.818 91.5633 188.624 96.5391C198.989 102.4 205.025 111.328 206.6 123.163C207.855 132.576 205.705 141.275 200.683 149.277C197.386 154.531 193.104 158.888 188.104 162.548C182.798 166.429 176.936 169.169 170.664 171.064C164.83 172.824 158.857 173.923 152.827 174.711C142.672 176.037 132.468 176.795 122.247 177.314C108.878 177.991 95.5584 179.175 82.3445 181.395C80.1389 181.765 77.9462 182.224 75.7482 182.646C75.4205 182.709 75.2356 182.59 75.2055 182.264C75.1846 182.052 75.2002 181.838 75.1984 181.623C75.2034 167.796 74.1383 154.041 72.4229 140.332C71.3447 131.711 70.2819 123.09 69.539 114.433C68.9722 107.846 68.5221 101.254 68.6395 94.6357C68.7468 88.5444 69.3354 82.5125 70.9207 76.6035C72.2315 71.7216 74.3591 67.2093 76.9903 62.9154C78.976 59.672 81.2912 56.6832 84.023 54.035C92.2531 46.0556 101.958 41.6864 113.557 42.2039C122.377 42.5997 129.982 45.9173 136.349 52.0458ZM53.0603 83.0136C54.878 80.5755 56.6995 78.1443 58.2402 75.5141C59.373 73.5805 60.4076 71.5987 61.3309 69.5555C61.4798 69.225 61.6535 69.0574 62.0313 69.0415C62.5615 69.0201 63.09 68.9447 63.6167 68.8716C63.917 68.8321 64.1389 68.8977 64.2473 69.1999C64.2826 69.2986 64.3052 69.4036 64.3398 69.5055C64.694 70.5073 65.2888 71.4985 65.3377 72.5167C65.3872 73.5318 64.895 74.5755 64.6327 75.6034C63.3368 80.6869 62.7015 85.8615 62.4296 91.0888C62.405 91.557 62.3928 92.0261 62.3742 92.4937C62.2782 92.5034 62.1841 92.5109 62.0881 92.5206C61.6617 91.921 61.2407 91.3147 60.8036 90.7211C58.7624 87.9338 56.2781 85.6434 53.2375 83.9743C52.6484 83.6544 52.6349 83.5833 53.0603 83.0136ZM88.157 36.3184C93.1098 33.0013 98.1076 29.7555 103.373 26.9524C105.91 25.6003 108.526 24.4113 111.268 23.524C112.997 22.9648 114.758 22.5648 116.578 22.4786C117.757 22.424 118.917 22.528 120.021 22.9858C121.968 23.7904 122.873 25.3623 122.559 27.4338C122.399 28.5015 122.012 29.4908 121.379 30.3688C119.937 32.3712 118.192 34.0727 116.244 35.5876C115.714 35.9985 115.172 35.9823 114.592 35.9543C112.247 35.8422 109.911 35.9241 107.575 36.1488C100.956 36.7823 94.7842 38.7927 89.0556 42.177C88.7961 42.331 88.5944 42.6418 88.2269 42.5334C88.0797 42.4142 88.1013 42.2674 88.1198 42.1087C88.2922 40.5057 88.1985 38.9257 87.7569 37.366C87.5792 36.7327 87.6117 36.6849 88.157 36.3184Z" fill="white" fill-opacity="0.06"/>
</g>
<defs>
<clipPath id="clip0_1_8602">
<rect width="263" height="269" fill="white"/>
</clipPath>
</defs>
</svg>
