<svg width="41" height="41" viewBox="0 0 41 41" fill="none" xmlns="http://www.w3.org/2000/svg">
<g clip-path="url(#clip0_5_13)">
<mask id="mask0_5_13" style="mask-type:luminance" maskUnits="userSpaceOnUse" x="0" y="0" width="41" height="41">
<path d="M40.5 0.499756H0.5V40.4998H40.5V0.499756Z" fill="white"/>
</mask>
<g mask="url(#mask0_5_13)">
<path d="M40.0779 27.9055L36.2879 24.1152L28.4476 31.9555C27.0481 33.355 25.2915 34.2675 23.3835 34.609L28.379 39.6044C28.8364 40.0622 29.5786 40.0622 30.0361 39.6044L40.0779 29.5629C40.5357 29.1052 40.5357 28.363 40.0779 27.9055Z" fill="white"/>
<path d="M34.7437 22.3446C36.0648 21.0238 36.0651 18.8744 34.7456 17.5527C34.744 17.5512 34.7425 17.5496 34.741 17.5481C34.4144 17.2219 34.033 16.9704 33.6176 16.8023C33.9777 15.8913 34.0537 14.3508 32.8608 13.1576C32.8577 13.1545 32.8547 13.1511 32.8513 13.1481C32.5263 12.8252 32.1473 12.5762 31.7347 12.409C32.0948 11.4986 32.1711 9.95778 30.9788 8.76516C30.9779 8.76424 30.9773 8.76363 30.9766 8.76302C30.6498 8.43618 30.268 8.1841 29.8521 8.01595C30.2122 7.105 30.2882 5.56416 29.0952 4.37093C29.0955 4.37093 29.0949 4.37093 29.0952 4.37093C29.0949 4.37063 29.094 4.37001 29.0937 4.36971C27.772 3.04799 25.6217 3.04799 24.3 4.36971L22.078 6.59139L23.2142 7.72756C25.1075 9.62087 25.1075 12.7013 23.2145 14.5946C22.5773 15.2315 21.7945 15.6692 20.9412 15.8776C20.7371 16.7095 20.311 17.4981 19.6619 18.1469C19.0256 18.7832 18.2441 19.2205 17.3917 19.4292C17.1833 20.2813 16.7457 21.0631 16.1097 21.6991C15.4734 22.3354 14.6918 22.7727 13.8395 22.9815C13.6311 23.8335 13.1934 24.6154 12.5574 25.2517C11.6404 26.1684 10.4209 26.6738 9.12391 26.6738C7.82691 26.6738 6.60743 26.1687 5.69037 25.2514L4.5542 24.1152L0.764221 27.9055C0.306457 28.3633 0.306457 29.1051 0.764221 29.5629L10.8057 39.6044C11.2635 40.0622 12.0054 40.0619 12.4631 39.6044L19.6513 32.4166H21.6764C23.6082 32.4166 25.4243 31.664 26.7902 30.2984L34.7437 22.3446Z" fill="white"/>
<path d="M7.34854 23.5943C8.32938 24.5755 9.91996 24.5755 10.9008 23.5943C11.8819 22.6135 11.8819 21.0232 10.9008 20.0421C11.8819 21.0232 13.4722 21.0232 14.4533 20.0421C15.4342 19.0613 15.4342 17.4707 14.4533 16.4898C15.4342 17.4707 17.0248 17.4707 18.0056 16.4898C18.9864 15.509 18.9864 13.9184 18.0056 12.9376C18.9864 13.9184 20.577 13.9184 21.5578 12.9376C22.539 11.9565 22.539 10.3662 21.5578 9.38504L16.5493 4.3765C15.5685 3.39566 13.9779 3.39566 12.997 4.3765C12.0162 5.35733 12.0162 6.94791 12.997 7.92874L13.6245 8.55649C12.6437 7.57535 11.0531 7.57535 10.0722 8.55649C9.0914 9.53733 9.0914 11.1279 10.0722 12.1087L11.3274 13.3639C10.3466 12.3831 8.75602 12.3831 7.77518 13.3639C6.79404 14.3448 6.79404 15.9353 7.77518 16.9162L9.03037 18.1717C8.04923 17.1905 6.45896 17.1905 5.47781 18.1717C4.49698 19.1525 4.49698 20.7428 5.47781 21.7239L7.34854 23.5943Z" fill="white"/>
<path d="M22.6429 2.71223C22.8162 2.53889 22.9996 2.37959 23.1904 2.23158L22.5049 1.54615C22.1485 1.1894 21.6032 1.10121 21.1524 1.32643L18.2599 2.77266L20.4212 4.93422L22.6429 2.71223Z" fill="white"/>
</g>
</g>
<defs>
<clipPath id="clip0_5_13">
<rect width="40" height="40" fill="white" transform="translate(0.5 0.5)"/>
</clipPath>
</defs>
</svg>
