<svg width="41" height="41" viewBox="0 0 41 41" fill="none" xmlns="http://www.w3.org/2000/svg">
<g clip-path="url(#clip0_5_22)">
<mask id="mask0_5_22" style="mask-type:luminance" maskUnits="userSpaceOnUse" x="0" y="0" width="41" height="41">
<path d="M40.5 0.499756H0.5V40.4998H40.5V0.499756Z" fill="white"/>
</mask>
<g mask="url(#mask0_5_22)">
<path d="M23.4298 0.812256C22.2919 0.812256 21.2874 1.25241 20.5001 2.09054C19.7127 1.25241 18.7083 0.812256 17.5704 0.812256C15.2705 0.812256 13.4688 2.61647 13.4688 4.91976C13.4688 7.35546 15.4783 8.92101 18.2593 11.0878C18.7413 11.4633 19.2397 11.8516 19.7681 12.2743C19.982 12.4455 20.2411 12.5311 20.5001 12.5311C20.7591 12.5311 21.0181 12.4455 21.2321 12.2743C21.7605 11.8516 22.2588 11.4633 22.7409 11.0878C25.522 8.92101 27.5313 7.35546 27.5313 4.91976C27.5313 2.61647 25.7297 0.812256 23.4298 0.812256Z" fill="white"/>
<path d="M0.562993 22.508C0.681978 22.8536 0.954399 23.1249 1.30112 23.2393L14.3088 27.1577C14.8059 27.325 15.3598 27.1388 15.6546 26.6965L18.994 21.6863C19.1966 21.3819 19.2458 21.0008 19.1279 20.6563C19.0089 20.3107 18.7365 20.0394 18.3898 19.925L5.38213 16.0066C4.87971 15.8361 4.33042 16.0261 4.03627 16.4678L0.696899 21.478C0.494321 21.7825 0.445103 22.1636 0.562993 22.508Z" fill="white"/>
<path d="M40.4371 22.508C40.555 22.1636 40.5058 21.7825 40.3032 21.478L36.9638 16.4678C36.6697 16.0261 36.1204 15.8361 35.618 16.0066L22.6103 19.925C22.2636 20.0395 21.9912 20.3107 21.8722 20.6563C21.7543 21.0007 21.8035 21.3818 22.0061 21.6863L25.3455 26.6965C25.6403 27.1389 26.1942 27.3251 26.6913 27.1577L39.699 23.2393C40.0457 23.1248 40.3181 22.8536 40.4371 22.508Z" fill="white"/>
<path d="M19.3282 25.4111L17.6047 27.9966C16.7145 29.328 15.0562 29.882 13.5615 29.379L5.1875 26.8657V34.6554C5.1875 35.1601 5.51023 35.6076 5.98859 35.7667L19.3281 40.1871L19.3282 25.4111Z" fill="white"/>
<path d="M35.8126 34.6555V26.8658L27.3711 29.4008C26.0351 29.8549 24.3224 29.3828 23.3965 27.9989L21.6719 25.4111V40.1872L35.0115 35.7668C35.4898 35.6077 35.8126 35.1602 35.8126 34.6555Z" fill="white"/>
<path d="M26.07 11.4312C25.4873 11.9187 24.8556 12.4112 24.1815 12.9364C23.7064 13.3065 23.2154 13.689 22.6961 14.1044C22.0752 14.6012 21.2952 14.8747 20.5 14.8747C19.7048 14.8747 18.9249 14.6012 18.3039 14.1044C17.7847 13.6891 15.5129 11.9187 14.9302 11.4312L7.00262 14.0505L19.0696 17.6822C19.6226 17.864 20.1065 18.1667 20.4976 18.554C20.8818 18.1694 21.3515 17.8721 21.8757 17.6994L33.9948 14.0497L26.07 11.4312Z" fill="white"/>
</g>
</g>
<defs>
<clipPath id="clip0_5_22">
<rect width="40" height="40" fill="white" transform="translate(0.5 0.5)"/>
</clipPath>
</defs>
</svg>
