<svg width="42" height="42" viewBox="0 0 42 42" fill="none" xmlns="http://www.w3.org/2000/svg">
<g clip-path="url(#clip0_5_2)">
<path d="M40.0076 32.2594L35.4634 39.4275C34.9777 40.2526 34.1807 40.8553 33.2459 41.1041C32.7144 41.2276 32.1592 41.2117 31.6358 41.0578C31.1125 40.904 30.6392 40.6176 30.2633 40.2273C29.5891 39.52 29.126 38.6432 28.9249 37.6933C28.7238 36.7435 28.7925 35.7574 29.1234 34.8436C29.2324 34.4956 29.39 34.1643 29.5918 33.8591L32.1528 29.8136L33.7144 27.3986L34.1829 26.6756C34.5209 26.128 34.9935 25.673 35.5571 25.3528C36.1603 25.0028 36.8654 24.8625 37.5592 24.9546C38.253 25.0466 38.8953 25.3656 39.383 25.8604C40.2081 26.6885 40.7064 27.7793 40.7884 28.9368C40.8949 30.098 40.6213 31.2624 40.0076 32.2594ZM32.1997 24.8144L27.5149 32.1363L26.8122 33.6745V33.8745C25.5225 33.1398 24.4264 32.1165 23.6126 30.8873C22.7988 29.6581 22.29 28.2575 22.1275 26.7987C21.9016 24.495 21.4732 22.2151 20.847 19.9844C20.2208 22.2151 19.7924 24.495 19.5665 26.7987C19.404 28.2575 18.8952 29.6581 18.0814 30.8873C17.2675 32.1165 16.1714 33.1398 14.8817 33.8745V33.6745L14.179 32.1363L9.4943 24.8144C9.14555 24.2343 8.70241 23.7147 8.18257 23.2762C8.91575 22.2363 9.38682 21.0394 9.55676 19.7844C9.8956 17.441 10.6796 15.1814 11.8679 13.1239L13.4295 10.4628L16.4433 5.4021L17.6145 3.43318C17.9574 2.7578 18.3994 2.13584 18.9262 1.58732C19.0402 1.46578 19.1776 1.36782 19.3304 1.29915C19.4833 1.23048 19.6484 1.19249 19.8163 1.18738C20.0387 1.24217 20.2443 1.34912 20.4156 1.49911C20.5869 1.64911 20.7188 1.83769 20.8001 2.04878C20.8814 1.83769 21.0134 1.64911 21.1847 1.49911C21.356 1.34912 21.5616 1.24217 21.7839 1.18738C21.9638 1.17992 22.1432 1.21037 22.3102 1.27668C22.4771 1.343 22.6278 1.44366 22.7521 1.57194C23.2692 2.12721 23.7006 2.75433 24.0326 3.43318L25.1726 5.4021L28.202 10.4167L29.7636 13.0778C30.9519 15.1353 31.7359 17.3948 32.0748 19.7383C32.2492 21.0066 32.7313 22.2149 33.4802 23.2608C32.9701 23.7064 32.5376 24.2312 32.1997 24.8144ZM25.5473 16.4619C25.4785 15.8315 25.3153 15.2147 25.0633 14.6314C24.8951 14.2079 24.6969 13.7967 24.4699 13.4008L24.1263 12.8625C23.1747 11.5105 22.3439 10.0797 21.6434 8.58621C21.2741 7.73926 20.9916 6.85811 20.8001 5.95586C20.6097 6.86334 20.3272 7.7497 19.9569 8.60159C19.2564 10.0951 18.4256 11.5258 17.474 12.8778L17.1304 13.4162C16.9034 13.8121 16.7051 14.2233 16.537 14.6468C16.2851 15.2302 16.122 15.847 16.0529 16.4773C16.0208 16.676 16.0208 16.8784 16.0529 17.0772C16.0877 17.2605 16.183 17.4273 16.324 17.5518C16.465 17.6763 16.6438 17.7514 16.8325 17.7654C17.0213 17.7794 17.2095 17.7316 17.3679 17.6294C17.5263 17.5272 17.6459 17.3763 17.7082 17.2002C18.0979 16.2154 18.5788 15.2679 19.1449 14.3699L19.4884 13.8315C19.6602 13.2162 19.9725 12.6163 20.4878 12.5856C20.5757 12.5715 20.6654 12.5715 20.7533 12.5856C20.8412 12.5715 20.9308 12.5715 21.0188 12.5856C21.5341 12.5856 21.8464 13.2162 22.0182 13.8315L22.3617 14.3699C22.9278 15.2679 23.4087 16.2153 23.7984 17.2002C23.8607 17.3763 23.9803 17.5272 24.1387 17.6294C24.297 17.7316 24.4852 17.7794 24.674 17.7654C24.8628 17.7514 25.0416 17.6763 25.1826 17.5518C25.3236 17.4273 25.4189 17.2605 25.4536 17.0772C25.5189 16.8785 25.5505 16.6706 25.5473 16.4619ZM12.4613 34.9205C12.3523 34.5725 12.1946 34.2412 11.9928 33.936L9.44745 29.8136L7.99518 27.3371L7.5267 26.6141C7.18873 26.0664 6.71612 25.6115 6.15251 25.2912C5.54152 24.9215 4.81998 24.7702 4.10909 24.8626C3.39819 24.9551 2.74124 25.2856 2.24856 25.7989C1.4234 26.627 0.925086 27.7178 0.843132 28.8753C0.713557 30.0536 0.97665 31.2414 1.59269 32.2594L6.1369 39.4275C6.62254 40.2526 7.41958 40.8553 8.35434 41.1041C8.88592 41.2276 9.44108 41.2117 9.96444 41.0578C10.4878 40.904 10.961 40.6176 11.337 40.2273C12.0111 39.52 12.4743 38.6432 12.6754 37.6933C12.8765 36.7435 12.8078 35.7574 12.4769 34.8436L12.4613 34.9205Z" fill="white"/>
</g>
<defs>
<clipPath id="clip0_5_2">
<rect width="41" height="41" fill="white" transform="translate(0.5 0.5)"/>
</clipPath>
</defs>
</svg>
