<svg width="41" height="41" viewBox="0 0 41 41" fill="none" xmlns="http://www.w3.org/2000/svg">
<g clip-path="url(#clip0_5_4)">
<mask id="mask0_5_4" style="mask-type:luminance" maskUnits="userSpaceOnUse" x="0" y="0" width="41" height="41">
<path d="M40.5 0.499756H0.5V40.4998H40.5V0.499756Z" fill="white"/>
</mask>
<g mask="url(#mask0_5_4)">
<path d="M4.91749 24.9764C3.88655 23.3083 3.34163 21.3901 3.34163 19.4291V11.4261C3.34163 10.6427 2.70437 10.0054 1.92093 10.0054C1.13765 10.0054 0.500305 10.6426 0.500305 11.4261V24.6141C0.500305 26.1395 0.924211 27.6316 1.72609 28.9292C2.52812 30.2267 3.67312 31.2732 5.03749 31.9554L5.68531 32.2793V40.4997H8.52648V28.5141C7.05726 27.6465 5.81874 26.4348 4.91749 24.9764Z" fill="white"/>
<path d="M29.267 15.2804V8.40158C29.267 7.6183 28.6297 6.98096 27.8463 6.98096C27.063 6.98096 26.4256 7.61822 26.4256 8.40158V15.9738L26.55 15.8881C27.3772 15.326 28.3492 15.1367 29.267 15.2804Z" fill="white"/>
<path d="M38.2398 24.3059L34.4515 26.9212V10.9941C34.4515 10.2108 33.8142 9.57349 33.0309 9.57349C32.2475 9.57349 31.6102 10.2107 31.6102 10.9941V16.6166C31.6828 16.705 31.7526 16.7968 31.818 16.8932C32.9934 18.6229 32.5425 20.9864 30.813 22.1618L29.4174 23.11C28.4644 23.7578 27.6587 24.5718 27.0231 25.5293C26.4022 26.4647 25.6075 27.2579 24.6994 27.8541L24.6799 40.4998H32.7076L32.7287 32.961L33.3505 32.6319C34.1741 32.1962 34.8968 31.5331 35.4404 30.7142C36.245 29.5022 37.2644 28.4723 38.4701 27.6528L39.8656 26.7044C40.5263 26.2554 40.6985 25.3525 40.2495 24.6917C39.8013 24.0322 38.9003 23.8593 38.2398 24.3059Z" fill="white"/>
<path d="M28.1001 21.1716L29.4956 20.2232C30.1563 19.7742 30.3286 18.8712 29.8796 18.2105C29.4314 17.5509 28.5309 17.3782 27.8704 17.8242L24.0815 20.4398V17.2593V4.51288C24.0815 3.72952 23.4442 3.09218 22.6609 3.09218C21.8775 3.09218 21.2402 3.72944 21.2402 4.51288V12.0743H18.8965V1.92038C18.8966 1.13702 18.2593 0.499756 17.4759 0.499756C16.6927 0.499756 16.0553 1.13702 16.0553 1.92038V10.7781H13.7116V1.92038C13.7116 1.13702 13.0743 0.499756 12.291 0.499756C11.5077 0.499756 10.8703 1.13702 10.8703 1.92038V12.0744H8.52657V6.24116C8.52657 5.45788 7.8893 4.82054 7.10594 4.82054C6.32258 4.82054 5.68539 5.45788 5.68539 6.24116V19.4292C5.68539 20.9546 6.1093 22.4468 6.91118 23.7443C7.71313 25.0419 8.85813 26.0883 10.2225 26.7705L10.8703 27.0944V40.4998H22.3363L22.3578 26.4801L22.9806 26.1506C23.8043 25.7148 24.527 25.0518 25.0705 24.233C25.8751 23.0209 26.8943 21.9909 28.1001 21.1716Z" fill="white"/>
</g>
</g>
<defs>
<clipPath id="clip0_5_4">
<rect width="40" height="40" fill="white" transform="translate(0.5 0.5)"/>
</clipPath>
</defs>
</svg>
