<svg width="40" height="40" viewBox="0 0 40 40" fill="none" xmlns="http://www.w3.org/2000/svg">
<g clip-path="url(#clip0_1_8238)">
<path d="M22.9298 0.312256C21.7919 0.312256 20.7874 0.752412 20.0001 1.59054C19.2127 0.752412 18.2083 0.312256 17.0704 0.312256C14.7705 0.312256 12.9688 2.11647 12.9688 4.41976C12.9688 6.85546 14.9783 8.42101 17.7593 10.5878C18.2413 10.9633 18.7397 11.3516 19.2681 11.7743C19.482 11.9455 19.7411 12.0311 20.0001 12.0311C20.2591 12.0311 20.5181 11.9455 20.7321 11.7743C21.2605 11.3516 21.7588 10.9633 22.2409 10.5878C25.022 8.42101 27.0313 6.85546 27.0313 4.41976C27.0313 2.11647 25.2297 0.312256 22.9298 0.312256Z" fill="#20212B"/>
<path d="M0.0629932 22.008C0.181978 22.3536 0.454399 22.6249 0.801118 22.7393L13.8088 26.6577C14.3059 26.825 14.8598 26.6388 15.1546 26.1965L18.494 21.1863C18.6966 20.8819 18.7458 20.5008 18.6279 20.1563C18.5089 19.8107 18.2365 19.5394 17.8898 19.425L4.88213 15.5066C4.37971 15.3361 3.83042 15.5261 3.53627 15.9678L0.196899 20.978C-0.00567866 21.2825 -0.0548974 21.6636 0.0629932 22.008Z" fill="#20212B"/>
<path d="M39.9371 22.008C40.055 21.6636 40.0058 21.2825 39.8032 20.978L36.4638 15.9678C36.1697 15.5261 35.6204 15.3361 35.118 15.5066L22.1103 19.425C21.7636 19.5395 21.4912 19.8107 21.3722 20.1563C21.2543 20.5007 21.3035 20.8818 21.5061 21.1863L24.8455 26.1965C25.1403 26.6389 25.6942 26.8251 26.1913 26.6577L39.199 22.7393C39.5457 22.6248 39.8181 22.3536 39.9371 22.008Z" fill="#20212B"/>
<path d="M18.8282 24.9111L17.1047 27.4966C16.2145 28.828 14.5562 29.382 13.0615 28.879L4.6875 26.3657V34.1554C4.6875 34.6601 5.01023 35.1076 5.48859 35.2667L18.8281 39.6871V24.9111H18.8282Z" fill="#20212B"/>
<path d="M35.3126 34.1555V26.3658L26.8711 28.9008C25.5351 29.3549 23.8224 28.8828 22.8965 27.4989L21.1719 24.9111V39.6872L34.5115 35.2668C34.9898 35.1077 35.3126 34.6602 35.3126 34.1555Z" fill="#20212B"/>
<path d="M25.57 10.9312C24.9873 11.4187 24.3556 11.9112 23.6815 12.4364C23.2064 12.8065 22.7154 13.189 22.1961 13.6044C21.5752 14.1012 20.7952 14.3747 20 14.3747C19.2048 14.3747 18.4249 14.1012 17.8039 13.6044C17.2847 13.1891 15.0129 11.4187 14.4302 10.9312L6.50262 13.5505L18.5696 17.1822C19.1226 17.364 19.6065 17.6667 19.9976 18.054C20.3818 17.6694 20.8515 17.3721 21.3757 17.1994L33.4948 13.5497L25.57 10.9312Z" fill="#20212B"/>
</g>
<defs>
<clipPath id="clip0_1_8238">
<rect width="40" height="40" fill="white" transform="translate(0 -0.000244141)"/>
</clipPath>
</defs>
</svg>
