<svg width="40" height="40" viewBox="0 0 40 40" fill="none" xmlns="http://www.w3.org/2000/svg">
<g clip-path="url(#clip0_1_8255)">
<path d="M4.41749 24.4764C3.38655 22.8083 2.84163 20.8901 2.84163 18.9291V10.9261C2.84163 10.1427 2.20437 9.50537 1.42093 9.50537C0.637649 9.50537 0.000305176 10.1426 0.000305176 10.9261V24.1141C0.000305176 25.6395 0.424211 27.1316 1.22609 28.4292C2.02812 29.7267 3.17312 30.7732 4.53749 31.4554L5.18531 31.7793V39.9997H8.02648V28.0141C6.55726 27.1465 5.31874 25.9348 4.41749 24.4764Z" fill="#20212B"/>
<path d="M28.767 14.7804V7.90158C28.767 7.1183 28.1297 6.48096 27.3463 6.48096C26.563 6.48096 25.9256 7.11822 25.9256 7.90158V15.4738L26.05 15.3881C26.8772 14.826 27.8492 14.6367 28.767 14.7804Z" fill="#20212B"/>
<path d="M37.7398 23.8059L33.9515 26.4212V10.4941C33.9515 9.71083 33.3142 9.07349 32.5309 9.07349C31.7475 9.07349 31.1102 9.71075 31.1102 10.4941V16.1166C31.1828 16.205 31.2526 16.2968 31.318 16.3932C32.4934 18.1229 32.0425 20.4864 30.313 21.6618L28.9174 22.61C27.9644 23.2578 27.1587 24.0718 26.5231 25.0293C25.9022 25.9647 25.1075 26.7579 24.1994 27.3541L24.1799 39.9998H32.2076L32.2287 32.461L32.8505 32.1319C33.6741 31.6962 34.3968 31.0331 34.9404 30.2142C35.745 29.0022 36.7644 27.9723 37.9701 27.1528L39.3656 26.2044C40.0263 25.7554 40.1985 24.8525 39.7495 24.1917C39.3013 23.5322 38.4003 23.3593 37.7398 23.8059Z" fill="#20212B"/>
<path d="M27.6001 20.6716L28.9956 19.7232C29.6563 19.2742 29.8286 18.3712 29.3796 17.7105C28.9314 17.0509 28.0309 16.8782 27.3704 17.3242L23.5815 19.9398V16.7593V4.01288C23.5815 3.22952 22.9442 2.59218 22.1609 2.59218C21.3775 2.59218 20.7402 3.22944 20.7402 4.01288V11.5743H18.3965V1.42038C18.3966 0.637021 17.7593 -0.000244141 16.9759 -0.000244141C16.1927 -0.000244141 15.5553 0.637021 15.5553 1.42038V10.2781H13.2116V1.42038C13.2116 0.637021 12.5743 -0.000244141 11.791 -0.000244141C11.0077 -0.000244141 10.3703 0.637021 10.3703 1.42038V11.5744H8.02657V5.74116C8.02657 4.95788 7.3893 4.32054 6.60594 4.32054C5.82258 4.32054 5.18539 4.95788 5.18539 5.74116V18.9292C5.18539 20.4546 5.6093 21.9468 6.41118 23.2443C7.21313 24.5419 8.35813 25.5883 9.7225 26.2705L10.3703 26.5944V39.9998H21.8363L21.8578 25.9801L22.4806 25.6506C23.3043 25.2148 24.027 24.5518 24.5705 23.733C25.3751 22.5209 26.3943 21.4909 27.6001 20.6716Z" fill="#20212B"/>
</g>
<defs>
<clipPath id="clip0_1_8255">
<rect width="40" height="40" fill="white" transform="translate(0 -0.000244141)"/>
</clipPath>
</defs>
</svg>
