<svg width="41" height="41" viewBox="0 0 41 41" fill="none" xmlns="http://www.w3.org/2000/svg">
<path d="M39.5076 31.7594L34.9634 38.9275C34.4777 39.7526 33.6807 40.3553 32.7459 40.6041C32.2144 40.7276 31.6592 40.7117 31.1358 40.5578C30.6125 40.404 30.1392 40.1176 29.7633 39.7273C29.0891 39.02 28.626 38.1432 28.4249 37.1933C28.2238 36.2435 28.2925 35.2574 28.6234 34.3436C28.7324 33.9956 28.89 33.6643 29.0918 33.3591L31.6528 29.3136L33.2144 26.8986L33.6829 26.1756C34.0209 25.628 34.4935 25.173 35.0571 24.8528C35.6603 24.5028 36.3654 24.3625 37.0592 24.4546C37.753 24.5466 38.3953 24.8656 38.883 25.3604C39.7081 26.1885 40.2064 27.2793 40.2884 28.4368C40.3949 29.598 40.1213 30.7624 39.5076 31.7594ZM31.6997 24.3144L27.0149 31.6363L26.3122 33.1745V33.3745C25.0225 32.6398 23.9264 31.6165 23.1126 30.3873C22.2988 29.1581 21.79 27.7575 21.6275 26.2987C21.4016 23.995 20.9732 21.7151 20.347 19.4844C19.7208 21.7151 19.2924 23.995 19.0665 26.2987C18.904 27.7575 18.3952 29.1581 17.5814 30.3873C16.7675 31.6165 15.6714 32.6398 14.3817 33.3745V33.1745L13.679 31.6363L8.99429 24.3144C8.64554 23.7343 8.2024 23.2147 7.68256 22.7762C8.41574 21.7363 8.88681 20.5394 9.05675 19.2844C9.39559 16.941 10.1796 14.6814 11.3679 12.6239L12.9295 9.96283L15.9433 4.9021L17.1145 2.93318C17.4574 2.2578 17.8994 1.63584 18.4262 1.08732C18.5402 0.965779 18.6776 0.867817 18.8304 0.799151C18.9833 0.730484 19.1484 0.692489 19.3163 0.687383C19.5387 0.742169 19.7443 0.849121 19.9156 0.999115C20.0869 1.14911 20.2188 1.33769 20.3001 1.54878C20.3814 1.33769 20.5134 1.14911 20.6847 0.999115C20.856 0.849121 21.0616 0.742169 21.2839 0.687383C21.4638 0.679922 21.6432 0.710367 21.8102 0.776684C21.9771 0.843001 22.1278 0.943661 22.2521 1.07194C22.7692 1.62721 23.2006 2.25433 23.5326 2.93318L24.6726 4.9021L27.702 9.91668L29.2636 12.5778C30.4519 14.6353 31.2359 16.8948 31.5748 19.2383C31.7492 20.5066 32.2313 21.7149 32.9802 22.7608C32.4701 23.2064 32.0376 23.7312 31.6997 24.3144ZM25.0473 15.9619C24.9785 15.3315 24.8153 14.7147 24.5633 14.1314C24.3951 13.7079 24.1969 13.2967 23.9699 12.9008L23.6263 12.3625C22.6747 11.0105 21.8439 9.57967 21.1434 8.08621C20.7741 7.23926 20.4916 6.35811 20.3001 5.45586C20.1097 6.36334 19.8272 7.2497 19.4569 8.10159C18.7564 9.59506 17.9256 11.0258 16.974 12.3778L16.6304 12.9162C16.4034 13.3121 16.2051 13.7233 16.037 14.1468C15.7851 14.7302 15.622 15.347 15.5529 15.9773C15.5208 16.176 15.5208 16.3784 15.5529 16.5772C15.5877 16.7605 15.683 16.9273 15.824 17.0518C15.965 17.1763 16.1438 17.2514 16.3325 17.2654C16.5213 17.2794 16.7095 17.2316 16.8679 17.1294C17.0263 17.0272 17.1459 16.8763 17.2082 16.7002C17.5979 15.7154 18.0788 14.7679 18.6449 13.8699L18.9884 13.3315C19.1602 12.7162 19.4725 12.1163 19.9878 12.0856C20.0757 12.0715 20.1654 12.0715 20.2533 12.0856C20.3412 12.0715 20.4308 12.0715 20.5188 12.0856C21.0341 12.0856 21.3464 12.7162 21.5182 13.3315L21.8617 13.8699C22.4278 14.7679 22.9087 15.7153 23.2984 16.7002C23.3607 16.8763 23.4803 17.0272 23.6387 17.1294C23.797 17.2316 23.9852 17.2794 24.174 17.2654C24.3628 17.2514 24.5416 17.1763 24.6826 17.0518C24.8236 16.9273 24.9189 16.7605 24.9536 16.5772C25.0189 16.3785 25.0505 16.1706 25.0473 15.9619ZM11.9613 34.4205C11.8523 34.0725 11.6946 33.7412 11.4928 33.436L8.94744 29.3136L7.49517 26.8371L7.02669 26.1141C6.68872 25.5664 6.21611 25.1115 5.6525 24.7912C5.04151 24.4215 4.31997 24.2702 3.60908 24.3626C2.89818 24.4551 2.24123 24.7856 1.74855 25.2989C0.923397 26.127 0.425078 27.2178 0.343124 28.3753C0.213549 29.5536 0.476642 30.7414 1.09268 31.7594L5.63689 38.9275C6.12253 39.7526 6.91957 40.3553 7.85433 40.6041C8.38591 40.7276 8.94107 40.7117 9.46443 40.5578C9.98778 40.404 10.461 40.1176 10.837 39.7273C11.5111 39.02 11.9743 38.1432 12.1754 37.1933C12.3765 36.2435 12.3078 35.2574 11.9769 34.3436L11.9613 34.4205Z" fill="#20212B"/>
</svg>
