<svg width="18" height="16" viewBox="0 0 18 16" fill="none" xmlns="http://www.w3.org/2000/svg">
<path d="M16.078 5.07303C15.2918 5.46705 14.5165 5.88264 13.7529 6.31838C14.4308 5.86776 15.1156 5.42756 15.8066 4.99717C16.0218 4.86315 15.8848 4.47147 15.626 4.56881C15.5541 4.59588 15.4831 4.62518 15.4127 4.65553C15.4868 4.48627 15.2908 4.26323 15.0734 4.35787C14.5291 4.59479 13.9986 4.85678 13.4793 5.13858C13.8237 4.89479 14.1701 4.65397 14.5163 4.41385C14.6814 4.29932 14.6304 4.07901 14.5039 3.99819C14.4709 3.85748 14.322 3.74303 14.1653 3.84315C13.9564 3.97658 13.7492 4.11256 13.5429 4.24987C13.9269 3.97295 14.3113 3.69678 14.696 3.4208C14.9366 3.24819 14.7255 2.86143 14.4594 3.01604C12.5132 4.14694 10.6528 5.41303 8.82767 6.72834C9.88033 5.92662 10.9529 5.15119 12.0333 4.38733C12.7505 3.88026 13.4713 3.37838 14.1929 2.87748C14.3022 2.80158 14.3207 2.68483 14.2839 2.59116C14.3247 2.56655 14.3653 2.54162 14.4061 2.51705C14.6644 2.36174 14.429 1.95627 14.1695 2.11229C13.3139 2.62698 12.4662 3.15475 11.6263 3.69459C11.6081 3.66135 11.583 3.63186 11.5529 3.60951C11.5937 3.5819 11.6349 3.55475 11.6759 3.52729C12.5333 3.0328 13.3908 2.5383 14.2483 2.04381C14.3243 2.00002 14.358 1.93467 14.3615 1.86776C14.3801 1.85721 14.3985 1.84639 14.4172 1.83584C14.6799 1.68748 14.4439 1.28241 14.1806 1.43108C13.6336 1.74002 13.0941 2.06162 12.5619 2.39475C12.7315 2.24655 12.899 2.09584 13.0642 1.94244C13.4162 1.69358 13.7695 1.44643 14.1252 1.2026C14.3725 1.03307 14.1383 0.626702 13.8886 0.797835C13.5943 0.999593 13.3017 1.20373 13.0098 1.40897C12.9804 1.41315 12.9504 1.42401 12.9209 1.44342C12.9129 1.44869 12.9048 1.45397 12.8968 1.4592C12.8613 1.32166 12.7139 1.21123 12.5583 1.30815C12.2003 1.53119 11.8443 1.75737 11.4899 1.98604C11.9928 1.64135 12.4998 1.30268 13.0092 0.968616C13.2613 0.803264 13.0413 0.423889 12.7726 0.56385C11.5349 1.20877 10.3361 1.92487 9.18189 2.70834C9.14244 2.70705 9.10142 2.71741 9.06166 2.74358C7.88767 3.51705 6.72982 4.31444 5.58822 5.13444C6.6031 4.35412 7.71494 3.6926 8.66736 2.8369C8.86615 2.6583 8.60939 2.33135 8.38333 2.46881C7.88287 2.77311 7.3872 3.08518 6.89607 3.40405C7.30529 3.0978 7.71849 2.79682 8.13583 2.50147C8.38052 2.3283 8.17166 1.95905 7.89923 2.0967C6.91701 2.59307 5.9606 3.13772 5.03228 3.72627C5.79416 3.14783 6.57181 2.59022 7.3538 2.03944C7.59646 1.86854 7.37994 1.47639 7.1172 1.63467C6.46189 2.02951 5.81654 2.43998 5.18052 2.86436C5.67986 2.48393 6.18478 2.11076 6.68931 1.73897C6.93033 1.56139 6.7283 1.20069 6.45271 1.3342C6.16537 1.47342 5.88365 1.62209 5.6058 1.77717C5.66916 1.72975 5.73232 1.68205 5.79568 1.63467C6.03568 1.45522 5.83603 1.0992 5.55908 1.22991C4.01724 1.95756 2.64123 2.97186 1.31126 4.02795C1.08208 4.20994 1.38958 4.5258 1.62177 4.37444C1.49775 4.51127 1.37931 4.65397 1.2688 4.80494C1.13416 4.98889 1.40556 5.26682 1.58947 5.12561C1.9665 4.83612 2.34447 4.54647 2.72556 4.26096C2.15431 4.76815 1.60513 5.29971 1.09041 5.86795C0.883647 6.09619 1.1899 6.38502 1.42185 6.1994C1.42876 6.19385 1.43576 6.18838 1.44267 6.18287C1.34298 6.30647 1.25373 6.43701 1.18091 6.57733C1.05513 6.81967 1.34666 7.03268 1.549 6.86135C2.61001 5.96291 3.72677 5.13287 4.88994 4.37373C3.67283 5.35705 2.49462 6.38842 1.35943 7.46604C1.13681 7.67737 1.46236 7.98608 1.69087 7.79748C2.18998 7.38565 2.69611 6.9826 3.20841 6.5876C2.79513 6.98678 2.3938 7.39838 2.0065 7.82311C1.79802 8.0517 2.10533 8.33698 2.33794 8.15455C2.68166 7.88506 3.02728 7.61803 3.37439 7.35295C2.9306 7.77592 2.50837 8.22073 2.11646 8.69244C1.9249 8.92299 2.21919 9.22635 2.44791 9.02389C2.90435 8.61987 3.38357 8.24666 3.87572 7.89088C3.51537 8.2599 3.17423 8.64701 2.85857 9.05549C2.67978 9.28682 2.96865 9.60608 3.19001 9.38694C3.76873 8.81408 4.36814 8.26494 4.98388 7.73514C4.96802 7.75006 4.95189 7.76467 4.93607 7.77967C4.25904 8.42022 3.63396 9.11143 3.08056 9.86182C2.90982 10.0933 3.25908 10.2977 3.44865 10.1458C4.08662 9.63487 4.73111 9.13209 5.38146 8.63705C5.42759 8.69901 5.50306 8.74299 5.58333 8.74467C5.50349 8.81319 5.42326 8.88119 5.34384 8.95018C5.03947 9.21463 4.74681 9.48561 4.52412 9.82487C4.40271 10.0098 4.60244 10.2042 4.7888 10.1692C5.13896 10.1033 5.42716 9.81776 5.70404 9.61123C6.0197 9.37576 6.33533 9.14026 6.65126 8.90514C7.09583 8.57432 7.5415 8.24498 7.9881 7.9169C7.6574 8.19526 7.32974 8.47733 7.00634 8.76459C6.34353 9.35334 5.699 9.96245 5.07689 10.5941C4.86146 10.8128 5.17998 11.1155 5.40833 10.9255C6.84224 9.73276 8.31443 8.5867 9.82275 7.4899C9.80845 7.50389 9.79431 7.51807 9.78005 7.53209C8.92736 8.15651 8.09166 8.80467 7.25951 9.4483C6.55455 9.99354 5.85916 10.5528 5.23556 11.1913C5.02466 11.4073 5.3558 11.7391 5.56701 11.5228C5.6608 11.4267 5.75662 11.3327 5.85326 11.2395C5.75884 11.3485 5.66513 11.4581 5.5731 11.5692C5.38322 11.7984 5.68068 12.1106 5.90455 11.9006C6.15939 11.6616 6.41857 11.428 6.6813 11.1987C6.65861 11.2428 6.63716 11.2879 6.61802 11.3351C6.57505 11.441 6.61568 11.5234 6.68802 11.5712C6.40025 11.8522 6.11935 12.1403 5.84712 12.4367C5.63947 12.6628 5.9481 12.9568 6.17857 12.7681C6.88759 12.1878 7.6113 11.6255 8.34865 11.0818C7.95244 11.4448 7.57486 11.8276 7.2215 12.2331C7.02419 12.4595 7.32958 12.7712 7.55294 12.5645C8.54732 11.6447 9.62412 10.8269 10.7456 10.0728C10.2524 10.4462 9.76259 10.8243 9.27802 11.2089C8.72497 11.648 8.05615 12.0789 7.6965 12.7037C7.55712 12.9458 7.86669 13.1518 8.06458 12.9877C8.38751 12.72 8.71435 12.4572 9.04419 12.1983C8.69083 12.5475 8.35619 12.9151 8.04544 13.3033C7.85482 13.5415 8.13865 13.8201 8.37689 13.6348C8.86439 13.2557 9.35232 12.8768 9.84259 12.5008C9.58998 12.7396 9.34505 12.9867 9.11126 13.2452C8.93052 13.4451 9.15404 13.7085 9.36497 13.6248C9.15255 13.8935 8.97103 14.1836 8.83916 14.5042C8.74638 14.7296 9.07775 14.8869 9.23087 14.7322C9.4097 14.5515 9.59048 14.3728 9.77294 14.1959C9.8513 14.2958 10.0284 14.336 10.1461 14.2439C10.3142 14.1124 10.4824 13.9809 10.6505 13.8494C10.7331 13.934 10.8699 13.9642 10.9762 13.8549C11.5368 13.278 12.1261 12.7303 12.7417 12.2137C13.1804 11.8705 13.6192 11.5273 14.0579 11.1841C14.2241 11.0541 14.0801 10.796 13.9054 10.7788C13.9501 10.7351 13.9945 10.691 14.0383 10.6464C14.1547 10.5276 14.0948 10.3415 13.9774 10.2684C14.1215 10.1524 14.2658 10.0365 14.4097 9.92018C14.6184 9.75151 14.3493 9.41557 14.1256 9.55209C14.1129 9.55986 14.1003 9.56783 14.0876 9.57561C14.3047 9.39928 14.5218 9.22295 14.739 9.04662C14.9469 8.8778 14.6783 8.54045 14.4549 8.67854C14.3821 8.72354 14.3099 8.76944 14.2374 8.81494C14.5951 8.56135 14.9502 8.30428 15.2995 8.03912C15.5333 7.86166 15.3344 7.48311 15.0629 7.63436C14.7595 7.80346 14.4581 7.97615 14.1586 8.15178C14.5084 7.90135 14.8585 7.65147 15.2088 7.40166C15.4505 7.2292 15.2406 6.8474 14.9722 6.9969C14.9464 7.01123 14.9207 7.02569 14.8949 7.04002C15.1036 6.89811 15.3115 6.75498 15.5173 6.60877C15.7608 6.4358 15.5522 6.06241 15.2807 6.20401C14.0472 6.84764 12.8386 7.53826 11.6577 8.27319C12.3967 7.78991 13.1494 7.32698 13.9067 6.87655C14.7045 6.40201 15.5094 5.93944 16.3146 5.47741C16.5783 5.32647 16.346 4.93873 16.078 5.07303ZM5.10853 8.25983C5.1388 8.23049 5.16943 8.20151 5.1999 8.17237C5.20478 8.17471 5.20966 8.17701 5.21466 8.17908C5.17927 8.20596 5.14392 8.23291 5.10853 8.25983Z" fill="#FA575D"/>
<path fill-rule="evenodd" clip-rule="evenodd" d="M16.5425 3.87711C16.3769 3.083 16.0109 2.32253 15.462 1.72207C14.9421 1.15339 14.2507 0.71816 13.4737 0.627144C12.4425 0.505621 11.4229 0.956089 10.5538 1.46613C10.1132 1.72484 9.68349 2.03078 9.29447 2.38031C9.33197 2.41929 9.3683 2.45918 9.40427 2.4998C9.68896 2.82211 9.95193 3.17824 10.0152 3.61109C10.0441 3.80691 9.8281 3.97164 9.66599 3.81425C9.35775 3.51546 9.13201 3.14832 8.83474 2.83628C8.83353 2.83464 8.83201 2.83351 8.8308 2.83187C8.71716 2.71308 8.59759 2.60093 8.4722 2.49632C8.2699 2.32714 8.05314 2.17601 7.82302 2.04402C7.09728 1.62718 6.2633 1.41152 5.42576 1.45527C3.94021 1.53304 2.56994 2.48933 1.87693 3.78777C1.03712 5.36109 1.38904 7.27675 2.22767 8.77246C3.12494 10.373 4.53505 11.6518 5.93201 12.8123C6.64525 13.4049 7.39134 13.9523 8.14994 14.4855C8.54056 14.76 8.94373 15.0143 9.339 15.2819C9.37025 15.3029 9.4015 15.3244 9.43236 15.3467C10.8449 14.3588 12.0996 13.1561 13.2093 11.8327C13.8503 11.0686 14.4492 10.2655 14.9883 9.42628C15.5429 8.56359 16.0328 7.64871 16.3328 6.66429C16.6047 5.77199 16.7351 4.79898 16.5425 3.87711ZM16.862 7.12355C16.5054 8.16144 15.9686 9.12914 15.3617 10.0396C14.7624 10.9389 14.1027 11.8018 13.3945 12.6177C12.3785 13.7884 11.2399 14.861 9.98002 15.7658C9.88357 15.8353 9.78587 15.9041 9.68787 15.9712C9.4449 15.8802 9.20779 15.7768 8.97541 15.6553C8.91986 15.6264 8.86486 15.5967 8.80978 15.5654C8.32498 15.2909 7.84845 15.0002 7.38627 14.6887C6.44798 14.0568 5.55197 13.3631 4.69923 12.6201C3.23322 11.3428 1.83591 9.86031 1.14451 8.00992C0.801187 7.09117 0.648844 6.08726 0.776539 5.11117C0.891031 4.23488 1.23748 3.42753 1.7808 2.73218C2.79451 1.43449 4.45306 0.643511 6.10736 0.818551C6.93978 0.906793 7.74681 1.19398 8.44134 1.66339C8.60775 1.77593 8.76873 1.89746 8.92185 2.02781C9.51127 1.47089 10.2007 1.01234 10.8441 0.681754C11.791 0.196363 12.8531 -0.127621 13.9186 0.105152C14.7804 0.293238 15.5437 0.829371 16.0937 1.50875C16.6667 2.21664 17.0636 3.07527 17.2042 3.97746C17.3683 5.03343 17.2074 6.11894 16.862 7.12355ZM15.5503 4.32519C15.7004 4.85289 15.7687 5.46625 15.6296 6.00332C15.5476 6.32046 15.0277 6.25925 15.0511 5.9248C15.0828 5.47527 15.1136 5.04593 15.0128 4.60097C14.916 4.17277 14.7413 3.77175 14.4918 3.41082C14.241 3.04863 13.9113 2.73421 13.5172 2.53453C13.1379 2.34238 12.5703 2.24863 12.1922 2.48543C12.1386 2.5189 12.0812 2.44203 12.1258 2.39902C12.5007 2.03609 12.9543 1.87703 13.475 1.9982C14.0019 2.12046 14.4624 2.49113 14.8008 2.90132C15.1457 3.3189 15.4023 3.80375 15.5503 4.32519Z" fill="#20212B"/>
</svg>
